<svg xmlns="http://www.w3.org/2000/svg" viewBox="0 0 840.95265 284.39706"><defs><style>.cls-1{fill:#ed1f24;}.cls-2{fill:#ee3c96;}.cls-3{fill:#6bc4e8;}.cls-4{fill:#373a36;}.cls-5{fill:#98989a;}.cls-6{fill:#ed40a9;}.cls-7{fill:#ea0029;}.cls-8{fill:#333;}</style></defs><g id="Layer_2" data-name="Layer 2"><g id="Horizontal_Logo" data-name="Horizontal Logo"><g id="logo"><g id="Bulb"><g id="light_ray" data-name="light ray"><path id="rect5319" class="cls-1" d="M118.21662,3.705V25.93685a3.70437,3.70437,0,0,1-3.705,3.704h0a3.70484,3.70484,0,0,1-3.705-3.704V3.705A3.70506,3.70506,0,0,1,114.51159,0h0A3.70459,3.70459,0,0,1,118.21662,3.705Z"/><path id="rect5337" class="cls-2" d="M60.41657,17.67691,71.53265,36.93014a3.70577,3.70577,0,0,1-1.35712,5.06123v.0006A3.70475,3.70475,0,0,1,65.115,40.63524l-11.11608-19.253a3.70533,3.70533,0,0,1,1.35647-5.06084l.00059-.001A3.70481,3.70481,0,0,1,60.41657,17.67691Z"/><path id="rect5339" class="cls-3" d="M14.39846,57.74591,33.651,68.862A3.70481,3.70481,0,0,1,35.0075,73.9225h0a3.70482,3.70482,0,0,1-5.0615,1.35712L10.69337,64.16354a3.70563,3.70563,0,0,1-1.35614-5.06117h0A3.70529,3.70529,0,0,1,14.39846,57.74591Z"/><path id="rect5345" class="cls-2" d="M168.76051,17.67691,157.64536,36.92955a3.7059,3.7059,0,0,0,1.3562,5.06182h0a3.70535,3.70535,0,0,0,5.06149-1.35613l11.1151-19.253a3.70385,3.70385,0,0,0-1.35614-5.06084v-.001A3.706,3.706,0,0,0,168.76051,17.67691Z"/><path id="rect5347" class="cls-3" d="M214.778,57.74689,195.5254,68.862a3.70675,3.70675,0,0,0-1.35647,5.0628h.001a3.70479,3.70479,0,0,0,5.06117,1.35614L218.484,64.16486a3.7064,3.7064,0,0,0,1.35614-5.06183h0A3.707,3.707,0,0,0,214.778,57.74689Z"/><path id="rect5349" class="cls-1" d="M225.47488,107.147h-14.2023a3.70534,3.70534,0,0,0-3.70536,3.70411h0a3.7057,3.7057,0,0,0,3.70536,3.706h14.2023a3.70549,3.70549,0,0,0,3.70536-3.706h0A3.70514,3.70514,0,0,0,225.47488,107.147Z"/><path id="rect5351" class="cls-1" d="M17.90733,107.147H3.705A3.70507,3.70507,0,0,0,0,110.85113H0a3.70542,3.70542,0,0,0,3.705,3.706h14.2023a3.70562,3.70562,0,0,0,3.706-3.706h0A3.70527,3.70527,0,0,0,17.90733,107.147Z"/></g><path id="light_bulb" data-name="light bulb" class="cls-4" d="M118.85341,38.393a21.91338,21.91338,0,0,0-3.31953-.03393,21.91723,21.91723,0,0,0-3.31986.03393c-50.96364.83124-84.36378,46.677-77.70129,92.3433,3.67524,25.718,17.78717,39.56846,26.37072,48.60255,18.4592,19.38882,15.2236,24.99155,21.41659,34.70239-3.35956,4.3136-3.69479,10.95713-.25312,15.32008-2.67067,4.395-2.71714,10.57576.72512,14.57691-3.14969,4.91888-2.86256,11.86817,1.28277,15.52-.89629,5.7309,3.33561,15.4386,14.82051,15.24631.28194,1.085.40053,5.47069,4.38855,8.06057,3.506,2.35342,5.10986,1.30554,18.58507,1.63046a10.41,10.41,0,0,0,5.954-1.63046c3.98415-2.58666,4.1091-6.97679,4.39045-8.06057,10.74279.18009,15.81229-8.90336,14.81953-15.24631,4.18024-3.68134,4.40135-10.6492,1.28244-15.52,3.4416-4.00115,3.39612-10.18193.72545-14.57691,3.44134-4.363,3.1071-11.00648-.25411-15.32008,2.85554-4.47793,4.20532-9.68361,6.48051-14.44361,6.20769-13.73765,18.27871-22.19107,26.93755-33.82436C219.20819,115.61494,185.23512,39.4752,118.85341,38.393Z"/><g id="brain"><path class="cls-3" d="M103.13406,80.31611c7.49242,8.13492,6.80891,19.09238-1.87493,26.45886,7.16684,6.00687,9.68394,16.50893,4.52636,24.67588a12.989,12.989,0,0,0-10.52168.09523,10.38723,10.38723,0,0,0-8.199-1.73331c-2.163-7.9677-8.90947-11.72943-17.00534-9.91088a11.28567,11.28567,0,0,0-1.4532-5.71522,14.02091,14.02091,0,0,0,8.61236-3.88255,10.236,10.236,0,0,0,13.79954,2.13613,12.03082,12.03082,0,0,0,6.17219,5.968c.44732-1.10649.88092-2.21527,1.34071-3.31408-5.60621-2.40468-7.35716-11.1212-1.31-15.29567-.68155-.98671-1.35548-1.97914-2.03578-2.96225a12.4005,12.4005,0,0,0-5.22714,11.90342c-3.79829,3.09009-8.166,2.12746-10.4999-1.40615a9.80023,9.80023,0,0,0,.80913-7.17006c5.22045-3.21118,5.70787-9.54264,3.458-14.34169,7.24055-.18809,12.097-4.73237,12.33151-11.84606A10.38059,10.38059,0,0,0,102.995,66.4134c-1.13628-.2967-2.27874-.56939-3.43071-.79981-1.39656,6.21511-9.03448,6.87585-13.28777,2.0201-.9184.77133-1.80641,1.57212-2.68957,2.37869a12.84508,12.84508,0,0,0,8.905,4.50234C90.63526,90.33207,65.05346,79.1058,70.21464,66.4134a8.27154,8.27154,0,0,1,11.08819-4.73749C98.344,36.46746,116.28244,62.65233,103.13406,80.31611Zm-36.604-6.61019c2.45915,6.38942,6.6894,9.44972,12.29081,11.45026,5.00381,3.97745,2.84144,13.08045-4.00337,12.77922,3.87743,4.43147,2.61331,8.3557-1.48267,10.82574-8.8861,5.22077-11.27312-2.87057-21.83129,2.66325-6.65351-7.9971.45631-19.91817,10.28837-19.72779C56.63141,86.19829,56.467,74.71535,66.53009,73.70592Zm-1.15552,51.56736c8.70884-3.83963,16.1359-3.09495,18.4002,6.10676a9.32116,9.32116,0,0,0-3.67044,8.64734c-9.67312,6.47276-6.68652,20.35237,5.84214,21.61525a13.03149,13.03149,0,0,0,8.34414,10.09353c.48552-1.08949.8617-2.22072,1.29754-3.32754-7.80108-3.1888-8.8483-13.55435.45532-16.04231-.26468-1.15748-.51846-2.31844-.7771-3.47783a11.61682,11.61682,0,0,0-9.27541,9.14815c-9.84932-1.23977-10.87541-11.417-1.77523-16.17048-2.1528-9.17066,5.09-11.01448,10.81609-5.65694,10.26429-8.61913,22.48751,8.74349,10.421,21.59865,14.22284,15.387-1.78778,34.29386-15.44018,20.34272-10.41878,4.19757-16.75858-1.84192-15.3563-12.44268-10.89111,3.11188-17.56128-5.49255-14.35069-16.21413-10.16781-3.20094-13.93086-12.18956-13.46753-22.03055C48.23247,107.15279,72.46549,109.31773,65.37457,125.27328Z"/><path class="cls-5" d="M149.76428,61.67749a8.27173,8.27173,0,0,1,11.08851,4.73591c5.165,12.69975-20.42259,23.89688-22.27737,8.10132a12.84848,12.84848,0,0,0,8.90566-4.50136c-.88315-.80755-1.77083-1.60834-2.69022-2.37967C140.53947,72.48787,132.9,71.83,131.50348,65.61458c-1.153.22943-2.29442.50212-3.43011.79882a10.37973,10.37973,0,0,0,6.9374,7.56232c.23423,7.11369,5.09129,11.658,12.33118,11.84606-2.22807,4.75383-1.80733,11.10321,3.458,14.34169a9.7957,9.7957,0,0,0,.81011,7.17006c-2.3271,3.523-6.692,4.50458-10.50022,1.40615A12.4035,12.4035,0,0,0,135.883,96.83626c-.68128.98311-1.35489,1.97554-2.03584,2.96225,6.04434,4.17382,4.29883,12.89007-1.31059,15.29632.45953,1.09816.89339,2.20694,1.34071,3.31343a12.0256,12.0256,0,0,0,6.17127-5.968,10.23867,10.23867,0,0,0,13.80078-2.13613,14.02735,14.02735,0,0,0,8.61113,3.88354,11.28877,11.28877,0,0,0-1.45327,5.71423c-8.08656-1.81757-14.84034,1.93517-17.00337,9.91088a10.38821,10.38821,0,0,0-8.2,1.73331,12.989,12.989,0,0,0-10.52162-.09523c-5.16375-8.17653-2.63254-18.67544,4.527-24.67588-8.68673-7.3674-9.36611-18.32584-1.87559-26.45886-11.67654-15.68825.81333-34.40727,12.92242-27.73519C144.63834,54.6757,147.3833,58.15287,149.76428,61.67749Zm19.51279,30.01938c9.82786-.19065,16.94405,11.72654,10.28706,19.72752-2.41426-1.26511-5.79371-3.159-12.13285-1.28657-7.18738,2.14984-18.30346-4.06047-11.18052-12.20242-6.84349.30123-9.00778-8.80111-4.00239-12.77856,5.38872-1.9256,9.74773-4.84906,12.2899-11.45092C174.49975,74.70505,174.494,86.13679,169.27707,91.69687Zm1.48562,57.7969c3.20383,10.703-3.43622,19.33238-14.35068,16.21413,1.40227,10.60332-4.99679,16.61819-15.3569,12.44432-13.74218,14.04079-29.58459-5.04194-15.44024-20.34436-12.08061-12.87052.14071-30.23057,10.42068-21.59865,5.656-5.29126,12.98753-3.58578,10.81649,5.65694,9.06513,4.73592,8.11248,14.92618-1.77531,16.17147a11.61418,11.61418,0,0,0-9.27573-9.14914c-.25831,1.15939-.51242,2.32035-.77677,3.47783,9.28787,2.48408,8.26663,12.85161.45565,16.04329.43518,1.10649.81143,2.23707,1.2972,3.32656a13.0318,13.0318,0,0,0,8.34422-10.09353c12.54013-1.26353,15.512-15.14537,5.84207-21.61525a9.32139,9.32139,0,0,0-3.66979-8.64734c2.26942-9.22927,9.70094-9.94193,18.39862-6.10676-5.728-12.89013,7.99619-15.17267,13.852-9.43147C186.93961,122.92728,187.00786,144.381,170.76269,149.49377Z"/><path class="cls-6" d="M65.46941,125.12267c8.70818-3.83872,16.1359-3.09364,18.39954,6.10741a9.31921,9.31921,0,0,0-3.67038,8.64767c-9.67213,6.47211-6.68651,20.35237,5.84207,21.61459a13.031,13.031,0,0,0,8.34455,10.09353c.48512-1.08949.86136-2.221,1.29588-3.32623-7.79976-3.18945-8.846-13.556.45632-16.04362-.26442-1.15781-.51787-2.31877-.77711-3.47658a11.61674,11.61674,0,0,0-9.27573,9.14756c-9.849-1.24076-10.87476-11.417-1.774-16.17055-2.15345-9.17027,5.08906-11.01383,10.81517-5.65687,10.26462-8.61814,22.48784,8.74251,10.42134,21.59891,14.22277,15.38675-1.78784,34.29353-15.44057,20.34245-10.41878,4.19757-16.75819-1.84257-15.35591-12.44241-10.89019,3.11155-17.56127-5.49346-14.35069-16.21472-10.16755-3.2016-13.9306-12.18831-13.46687-22.03028C48.32763,107.00283,72.56065,109.16875,65.46941,125.12267Z"/><path class="cls-7" d="M170.59409,149.34479c3.20547,10.70236-3.43457,19.33172-14.35068,16.21374,1.40359,10.60207-4.99449,16.617-15.35558,12.44241-13.74186,14.04178-29.58394-5.04193-15.44024-20.34245-12.08061-12.87117.141-30.23116,10.42068-21.59891,5.65628-5.29225,12.98719-3.58644,10.81583,5.65687,9.06585,4.735,8.1128,14.92526-1.77308,16.17055a11.61747,11.61747,0,0,0-9.277-9.14756c-.25857,1.15781-.51242,2.31877-.77743,3.47658,9.28853,2.48474,8.26762,12.85128.45539,16.04362.43676,1.10518.81294,2.23674,1.29846,3.32689a13.033,13.033,0,0,0,8.34388-10.09419c12.54046-1.26222,15.511-15.14439,5.84208-21.61459a9.32254,9.32254,0,0,0-3.67071-8.64767c2.27033-9.22895,9.70094-9.94127,18.40019-6.10649-5.72867-12.88974,7.99554-15.17393,13.85073-9.43147C186.773,122.77692,186.84058,144.23073,170.59409,149.34479Z"/></g></g><g id="text_outline" data-name="text outline"><path class="cls-8" d="M300.69289,133.06274,274.09914,35.59692h14.84912l20.92431,78.43164,21.05908-78.43164H345.646l-26.59375,97.46582Z"/><path class="cls-8" d="M362.79249,133.06274V72.04516H349.563V58.81567h26.99854v74.24707Zm0-84.23633V35.59692h13.769V48.82641Z"/><path class="cls-8" d="M393.166,133.06274V119.968H430.1548c4.0498,0,4.85986-.80958,4.85986-4.72461v-7.83008c0-3.91406-.81006-4.72461-4.85986-4.72461H404.91066c-10.12451,0-14.84912-2.29492-14.84912-14.30957V73.12524c0-12.01465,4.72461-14.30957,14.84912-14.30957H445.544V72.04516H408.69044c-4.0498,0-4.85986.80957-4.85986,4.72461v8.09961c0,3.375.67529,4.72559,3.645,4.72559h26.59424c10.12451,0,14.84912,2.29492,14.84912,14.30859v14.84961c0,12.01465-4.72461,14.30957-14.84912,14.30957Z"/><path class="cls-8" d="M469.03615,133.06274V72.04516h-13.2295V58.81567h26.99854v74.24707Zm0-84.23633V35.59692h13.769V48.82641Z"/><path class="cls-8" d="M512.90919,133.06274c-10.12451,0-14.84912-2.29492-14.84912-14.30957V73.12524c0-12.01465,4.72461-14.30957,14.84912-14.30957H545.7129c10.12452,0,14.84961,2.29492,14.84961,14.30957v45.62793c0,12.01465-4.72509,14.30957-14.84961,14.30957Zm33.88379-56.293c0-3.915-.81006-4.72461-4.85986-4.72461H516.82423c-4.0498,0-4.85986.80957-4.85986,4.72461v38.47364c0,3.915.81006,4.72461,4.85986,4.72461h25.10889c4.0498,0,4.85986-.80958,4.85986-4.72461Z"/><path class="cls-8" d="M624.416,133.06274v-56.293c0-3.915-.80957-4.72461-4.85938-4.72461H594.44728c-4.0498,0-4.85938.80957-4.85938,4.72461v56.293H575.68312V73.12524c0-12.01465,4.7251-14.30957,14.84961-14.30957h32.80371c10.12451,0,14.84912,2.29492,14.84912,14.30957v59.9375Z"/><path class="cls-8" d="M666.94142,133.06274c-10.12451,0-14.84912-2.29492-14.84912-14.30957V100.93384c0-12.01465,4.72461-14.30957,14.84912-14.30957H700.69v-9.8545c0-3.915-.80957-4.72461-4.85987-4.72461H653.57716V58.81567h46.168c10.12451,0,14.84961,2.29492,14.84961,14.30957v45.62793c0,12.01465-4.7251,14.30957-14.84961,14.30957ZM700.69,99.85376H670.72121c-4.04981,0-4.85987.81054-4.85987,4.72558v10.66407c0,3.915.81006,4.72461,4.85987,4.72461h25.10888c4.0503,0,4.85987-.80958,4.85987-4.72461Z"/><path class="cls-8" d="M729.58107,133.06274V73.12524c0-12.01465,4.7251-14.30957,14.84961-14.30957h30.37353V72.04516h-26.459c-4.04981,0-4.85938.80957-4.85938,4.72461v56.293Z"/><path class="cls-8" d="M795.86476,160.06177l7.96387-26.86426L776.83009,58.81567h14.71436l19.03418,52.7832,16.46972-52.7832h13.9043l-32.93848,101.2461Z"/><path class="cls-8" d="M246.55812,276.06274c-10.12451,0-14.84961-2.29492-14.84961-14.30957V192.90649c0-12.01465,4.7251-14.30957,14.84961-14.30957h37.52832c10.12451,0,14.84961,2.29492,14.84961,14.30957v14.71387h-9.17969V193.176c0-3.915-.81006-6.07422-6.21-6.07422H247.09816c-5.3999,0-6.21,2.15918-6.21,6.07422v68.44239c0,3.915.81006,6.07421,6.21,6.07421H283.5464c5.53516,0,6.21-2.15918,6.21-6.07421V247.0393h9.17969v14.71387c0,12.01465-4.7251,14.30957-14.84961,14.30957Z"/><path class="cls-8" d="M317.70265,276.06274v-59.9375c0-12.01465,4.72461-14.30957,14.84912-14.30957h30.374v8.50488h-29.834c-5.3999,0-6.20947,2.16016-6.20947,6.07422v59.668Z"/><path class="cls-8" d="M390.87208,276.06274c-10.12451,0-14.8496-2.29492-14.8496-14.30957V216.12524c0-12.01465,4.72509-14.30957,14.8496-14.30957H423.6758c10.12451,0,14.84912,2.29492,14.84912,14.30957v16.874c0,12.01464-4.72461,14.30957-14.84912,14.30957H385.20216v14.30957c0,5.93945,2.0249,6.07421,13.09473,6.07421h37.2583v8.37012Zm38.6084-59.668c0-3.91406-.81006-6.07422-6.21-6.07422h-31.8584c-5.3999,0-6.21,2.16016-6.21,6.07422v22.54492h38.06836c5.3999,0,6.21-2.16015,6.21-6.07519Z"/><path class="cls-8" d="M469.84621,276.06274c-10.125,0-14.84961-2.29492-14.84961-14.30957V243.93384c0-12.01465,4.72461-14.30957,14.84961-14.30957H508.4546v-13.2295c0-3.91406-.81005-6.07422-6.21-6.07422H456.48146v-8.50488h46.16846c10.12451,0,14.84912,2.29492,14.84912,14.30957v45.62793c0,12.01465-4.72461,14.30957-14.84912,14.30957Zm38.60839-37.93359H470.38576c-5.39942,0-6.20948,2.16015-6.20948,6.07519v17.41407c0,3.915.81006,6.07421,6.20948,6.07421h31.85888c5.39991,0,6.21-2.15918,6.21-6.07421Z"/><path class="cls-8" d="M559.07912,276.06274c-10.12452,0-14.84961-2.29492-14.84961-14.30957V210.32055H531.94484v-8.50488h12.28467V174.00708h9.17968v27.80859h20.11426v8.50488H553.40919v51.29786c0,3.915.81006,6.07421,6.21,6.07421h13.9043v8.37012Z"/><path class="cls-8" d="M596.06789,276.06274V210.32055H580.54347v-8.50488h24.56934v74.24707Zm0-88.96094v-8.50488h9.04492v8.50488Z"/><path class="cls-8" d="M644.39748,276.06274l-25.64893-74.24707H628.333l21.19434,63.17774,21.19385-63.17774h9.4497L654.522,276.06274Z"/><path class="cls-8" d="M708.25148,276.06274c-10.12451,0-14.84961-2.29492-14.84961-14.30957V216.12524c0-12.01465,4.7251-14.30957,14.84961-14.30957h32.80371c10.12451,0,14.84912,2.29492,14.84912,14.30957v16.874c0,12.01464-4.72461,14.30957-14.84912,14.30957H702.58156v14.30957c0,5.93945,2.0249,6.07421,13.09472,6.07421h37.2583v8.37012Zm38.6084-59.668c0-3.91406-.81006-6.07422-6.21-6.07422h-31.8584c-5.3999,0-6.21,2.16016-6.21,6.07422v22.54492h38.06836c5.3999,0,6.21-2.16015,6.21-6.07519Z"/><path class="cls-8" d="M774.80568,276.06274v-8.37012h40.36377c5.39941,0,6.21-2.15918,6.21-6.07421V249.06372c0-3.915-.81055-6.07422-6.21-6.07422H786.55031c-10.12451,0-14.84912-2.29492-14.84912-14.30957V216.12524c0-12.01465,4.72461-14.30957,14.84912-14.30957H827.1841v8.50488H786.95558c-5.3999,0-6.21,2.16016-6.21,6.07422v12.14942c0,3.6455.81006,6.07519,5.80469,6.07519h29.15918c10.124,0,14.84961,2.29492,14.84961,14.30957v12.82422c0,12.01465-4.72559,14.30957-14.84961,14.30957Z"/></g></g></g></g></svg>